<svg width="3000" height="878" viewBox="0 0 3000 878" fill="none" xmlns="http://www.w3.org/2000/svg">
<g clip-path="url(#clip0_3164_1263)">
<path d="M545.856 240.733C528.124 240.733 517.212 218.225 517.212 197.091C517.212 180.728 549.264 150.72 556.084 150.72C557.448 150.72 536.987 175.951 541.08 181.407C587.451 181.407 695.192 120.717 695.192 65.4886C695.192 34.8013 668.597 17.0693 626.317 17.0693C416.292 17.0693 48.7534 373.014 63.7525 563.264C68.5281 620.542 110.804 636.225 163.311 636.225C291.507 636.225 500.168 520.985 661.776 390.064C662.456 389.38 669.961 392.79 667.233 394.156C547.215 511.438 290.143 684.638 140.808 681.232C67.8445 679.867 4.42908 647.815 0.337448 564.629C-13.3006 325.965 389.702 0.0220003 619.497 0.0220003C678.824 0.0220003 720.419 25.2533 720.419 77.7594C720.419 145.949 612.677 240.733 545.856 240.733Z" fill="#FFFFFF"/>
<path d="M768.834 429.613C748.379 450.07 615.411 564.629 586.766 564.629C585.402 564.629 581.995 563.264 580.631 562.584C568.355 556.444 550.628 530.533 550.628 516.893C550.628 442.571 706.784 290.506 832.247 290.506C858.163 290.506 892.259 301.418 892.259 333.464C892.259 345.056 886.118 356.652 879.303 365.515C877.939 366.198 876.575 365.515 877.254 364.831C880.667 358.696 884.759 350.512 884.759 340.29C884.759 319.83 871.798 309.602 851.343 310.966C811.792 313.01 762.014 341.648 717.691 379.155C652.913 434.388 601.771 520.305 607.906 523.713C609.27 524.393 610.634 524.393 612.678 523.713C635.181 516.213 730.652 447.345 766.106 417.338C778.382 406.43 822.704 363.472 839.752 353.924C853.392 347.104 876.575 384.608 873.847 392.79C870.434 385.973 809.064 460.297 788.609 503.937C784.517 513.487 781.789 521.67 781.789 527.125C824.748 514.85 922.262 421.43 964.541 381.881C967.948 378.471 971.356 383.93 969.312 385.973C909.986 450.754 798.837 564.629 757.927 564.629C754.514 564.629 751.107 563.264 746.335 560.535C736.787 555.08 723.832 540.761 723.832 528.484C723.832 521.67 726.56 513.487 729.282 503.261C737.467 478.028 755.878 446.663 768.834 429.613Z" fill="#FFFFFF"/>
<path d="M1037.5 293.918C1041.59 290.506 1045.69 289.826 1047.73 289.826C1063.41 289.826 1089.32 316.422 1089.32 334.148C1089.32 336.197 1087.28 333.464 1082.51 332.779C1072.28 331.42 1048.41 359.38 1026.6 387.338C1017.73 398.247 988.408 440.522 988.408 440.522C1047.73 375.746 1175.25 283.006 1209.34 294.598C1218.21 298.01 1242.07 323.921 1242.07 334.148C1242.07 395.52 1108.42 559.171 1015 559.171C988.408 559.171 957.041 542.123 957.041 519.621C957.041 516.213 960.448 514.85 960.448 516.893C960.448 523.713 972.04 536.669 986.359 536.669C1055.23 536.669 1177.97 360.064 1186.16 321.873C1175.93 321.873 1066.14 376.424 947.493 501.212C881.346 595.994 785.201 741.236 768.154 842.156C764.746 859.204 764.746 872.838 780.43 874.887C749.063 887.163 718.375 861.932 723.831 820.337C738.151 705.776 874.531 492.345 978.175 359.38C996.587 336.197 1023.86 304.83 1037.5 293.918Z" fill="#FFFFFF"/>
<path d="M1487.55 72.3045C1497.78 64.1205 1506.65 58.6697 1512.79 58.6697C1550.97 56.6211 1578.24 96.1717 1565.29 88.6672C1543.47 78.445 1503.23 132.994 1473.23 171.861C1583.01 166.405 1726.9 171.861 1824.41 192.32C1829.86 193.684 1832.59 195.043 1824.41 194.359C1689.39 182.772 1564.61 183.452 1450.73 200.499C1425.5 231.866 1403 265.961 1375.73 306.191C1316.39 396.205 1265.25 482.804 1248.89 526.442C1278.21 529.854 1391.41 418.704 1431.63 381.882C1435.73 378.472 1438.46 383.931 1436.41 385.973C1403 424.157 1284.35 548.261 1243.43 563.265C1234.57 566.676 1227.75 563.944 1221.61 560.536C1216.16 557.808 1201.16 543.491 1197.07 533.262C1196.39 531.897 1195.02 530.534 1195.02 523.034C1195.02 502.578 1225.7 435.754 1309.58 306.191C1327.99 278.231 1347.77 248.234 1372.99 214.819C1308.22 227.774 1267.98 260.51 1285.71 270.732C1274.8 270.732 1251.62 257.777 1249.57 235.958C1246.84 205.276 1321.85 186.18 1398.22 177.316C1451.41 107.763 1470.51 85.9444 1487.55 72.3045Z" fill="#FFFFFF"/>
<path d="M1600.07 221.638C1606.21 228.458 1610.3 238.685 1607.57 238.685C1606.21 238.685 1600.75 235.957 1593.25 239.37C1581.66 244.141 1550.29 272.1 1542.1 283.692C1532.56 295.962 1518.24 281.643 1517.56 269.367C1516.87 249.592 1542.79 205.275 1560.52 199.819C1576.2 197.775 1591.2 211.41 1600.07 221.638ZM1372.31 563.943C1361.4 560.535 1344.36 543.49 1344.36 531.213C1344.36 491.662 1443.23 343.012 1486.87 308.238C1490.28 304.831 1494.37 304.146 1497.1 304.146C1512.79 304.146 1540.06 331.421 1540.06 348.468C1540.06 351.196 1536.65 347.789 1531.2 347.104C1503.24 344.382 1409.82 499.845 1401.63 527.805C1443.23 516.893 1542.79 422.113 1584.38 381.881C1589.15 378.471 1592.57 383.93 1590.52 385.973C1531.2 450.07 1422.78 561.221 1380.5 564.629C1377.77 564.629 1375.73 564.629 1372.31 563.943Z" fill="#FFFFFF"/>
<path d="M1568.02 403.021C1591.88 354.604 1615.75 316.422 1635.53 299.375C1639.62 295.963 1642.34 295.283 1644.39 295.283C1660.76 294.599 1686.66 321.189 1687.35 339.605C1686.66 341.649 1685.98 338.921 1680.53 338.921C1667.57 337.557 1646.43 372.337 1622.57 415.296C1597.34 458.936 1585.74 505.986 1583.01 514.851C1644.39 471.213 1777.36 330.742 1837.36 263.232C1842.14 257.776 1845.55 257.102 1841.46 264.601C1771.91 387.338 1576.2 565.992 1555.06 565.992C1541.42 566.676 1525.74 544.853 1525.74 539.396C1525.74 511.439 1540.06 459.619 1568.02 403.021Z" fill="#FFFFFF"/>
<path d="M1925.33 429.613C1904.88 450.07 1771.91 564.629 1743.27 564.629C1741.9 564.629 1738.5 563.264 1737.13 562.584C1724.86 556.444 1707.13 530.533 1707.13 516.893C1707.13 442.571 1863.28 290.506 1988.75 290.506C2014.66 290.506 2048.76 301.418 2048.76 333.464C2048.76 345.056 2042.62 356.652 2035.8 365.515C2034.43 366.198 2033.08 365.515 2033.76 364.831C2037.16 358.696 2041.25 350.512 2041.25 340.29C2041.25 319.83 2028.3 309.602 2007.84 310.966C1968.29 313.01 1918.51 341.648 1874.19 379.155C1809.41 434.388 1758.27 520.305 1764.41 523.713C1765.77 524.393 1767.13 524.393 1769.18 523.713C1791.68 516.213 1887.15 447.345 1922.61 417.338C1934.88 406.43 1979.21 363.472 1996.25 353.924C2009.89 347.104 2033.08 384.608 2030.34 392.79C2026.94 385.973 1965.57 460.297 1945.11 503.937C1941.02 513.487 1938.29 521.67 1938.29 527.125C1981.25 514.85 2078.76 421.43 2121.04 381.881C2124.44 378.471 2127.86 383.93 2125.81 385.973C2066.49 450.754 1955.34 564.629 1914.42 564.629C1911.02 564.629 1907.6 563.264 1902.83 560.535C1893.29 555.08 1880.33 540.761 1880.33 528.484C1880.33 521.67 1883.06 513.487 1885.79 503.261C1893.97 478.028 1912.38 446.663 1925.33 429.613Z" fill="#FFFFFF"/>
<path d="M2332.42 72.3045C2342.65 64.1205 2351.52 58.6697 2357.65 58.6697C2395.84 56.6211 2423.11 96.1717 2410.16 88.6672C2388.34 78.445 2348.11 132.994 2318.1 171.861C2427.89 166.405 2571.77 171.861 2669.28 192.32C2674.73 193.684 2677.46 195.043 2669.28 194.359C2534.26 182.772 2409.48 183.452 2295.6 200.499C2270.37 231.866 2247.87 265.961 2220.59 306.191C2161.26 396.205 2110.12 482.804 2093.76 526.442C2123.08 529.854 2236.28 418.704 2276.5 381.882C2280.59 378.472 2283.33 383.931 2281.28 385.973C2247.87 424.157 2129.22 548.261 2088.31 563.265C2079.44 566.676 2072.62 563.944 2066.48 560.536C2061.03 557.808 2046.03 543.491 2041.94 533.262C2041.25 531.897 2039.89 530.534 2039.89 523.034C2039.89 502.578 2070.57 435.754 2154.45 306.191C2172.86 278.231 2192.63 248.234 2217.86 214.819C2153.09 227.774 2112.85 260.51 2130.58 270.732C2119.67 270.732 2096.49 257.777 2094.44 235.958C2091.71 205.276 2166.72 186.18 2243.09 177.316C2296.28 107.763 2315.38 85.9444 2332.42 72.3045Z" fill="#FFFFFF"/>
<path d="M2444.93 221.638C2451.08 228.458 2455.17 238.685 2452.43 238.685C2451.08 238.685 2445.62 235.957 2438.12 239.37C2426.53 244.141 2395.16 272.1 2386.98 283.692C2377.43 295.962 2363.11 281.643 2362.43 269.367C2361.75 249.592 2387.66 205.275 2405.38 199.819C2421.07 197.775 2436.07 211.41 2444.93 221.638ZM2217.19 563.943C2206.27 560.535 2189.23 543.49 2189.23 531.213C2189.23 491.662 2288.1 343.012 2331.74 308.238C2335.15 304.831 2339.24 304.146 2341.97 304.146C2357.65 304.146 2384.93 331.421 2384.93 348.468C2384.93 351.196 2381.52 347.789 2376.07 347.104C2348.11 344.382 2254.69 499.845 2246.5 527.805C2288.1 516.893 2387.66 422.113 2429.25 381.881C2434.03 378.471 2437.44 383.93 2435.39 385.973C2376.07 450.07 2267.64 561.221 2225.37 564.629C2222.64 564.629 2220.59 564.629 2217.19 563.943Z" fill="#FFFFFF"/>
<path d="M2573.82 527.803C2616.78 516.212 2714.29 422.793 2757.93 381.88C2762.02 378.47 2765.43 383.928 2763.39 385.971C2704.07 450.753 2592.91 563.263 2552 563.263C2545.18 563.263 2537.68 557.128 2530.86 548.943C2523.36 540.074 2518.58 529.852 2518.58 522.353C2518.58 483.483 2597.68 369.605 2633.14 337.555C2577.23 362.786 2476.99 445.294 2426.53 499.844C2417.67 508.711 2409.48 518.94 2401.98 528.483C2383.57 550.308 2378.8 568.719 2389.03 573.49C2368.57 578.268 2352.2 556.443 2346.75 536.668C2345.38 531.895 2348.79 513.486 2365.84 482.118C2382.21 450.069 2408.12 409.837 2430.62 378.47C2455.17 343.696 2485.18 307.558 2502.9 293.918C2505.63 291.19 2509.72 290.505 2511.77 290.505C2528.81 290.505 2554.73 317.1 2554.73 334.148C2554.73 336.871 2552 333.463 2546.54 332.779C2537.68 332.104 2512.45 360.738 2491.99 387.337C2459.95 429.611 2424.49 480.07 2414.26 499.166C2421.76 488.253 2434.71 474.619 2449.03 460.979C2525.41 385.971 2645.41 293.918 2668.6 293.918C2684.97 293.918 2706.79 330.74 2697.93 338.24C2680.87 351.88 2575.18 495.752 2573.82 527.803Z" fill="#FFFFFF"/>
<path d="M2817.93 559.172C2693.83 624.633 2599.04 702.365 2551.31 791.015C2543.81 804.655 2540.4 814.197 2540.4 821.017C2540.4 830.565 2546.54 833.973 2555.4 833.973C2564.95 833.973 2576.54 829.882 2587.45 824.429C2667.23 781.466 2748.38 671.683 2817.93 559.172ZM2914.08 502.577C2929.08 497.121 2944.09 491.662 2959.09 486.895C2970 483.485 2980.91 485.527 2971.36 488.937C2949.54 497.802 2927.72 507.347 2906.58 516.213C2819.3 668.275 2706.78 839.428 2575.86 874.203C2568.36 876.252 2560.86 876.93 2553.36 876.93C2528.13 876.93 2506.98 865.339 2506.98 836.702C2506.98 829.196 2508.35 820.337 2511.76 810.105C2539.04 723.511 2673.37 613.042 2830.21 538.039C2845.21 512.12 2902.49 409.155 2902.49 409.155C2903.18 408.473 2886.12 420.748 2873.17 432.339C2862.94 441.887 2825.43 475.302 2787.25 505.304C2748.38 535.304 2708.15 564.629 2693.83 564.629C2692.46 564.629 2689.06 563.943 2687.01 562.584C2674.73 555.08 2657.69 530.533 2657.69 516.893C2657.69 442.571 2814.53 290.506 2939.31 290.506C2965.9 290.506 3000 301.418 3000 333.464C3000 345.056 2993.18 356.652 2987.04 365.515C2985.68 366.198 2985 365.515 2985.68 364.831C2988.41 358.696 2992.5 350.512 2992.5 340.289C2992.5 319.829 2979.54 309.602 2959.09 310.966C2919.54 313.01 2870.44 341.648 2825.43 379.154C2760.66 434.388 2710.88 518.262 2717.69 523.713C2720.42 526.441 2747.7 508.712 2777.7 488.937C2810.43 467.12 2842.48 441.887 2864.98 422.795C2912.03 383.246 2922.27 373.014 2933.86 367.564C2946.81 361.424 2975.45 398.247 2972.72 406.43C2970.68 404.382 2967.27 402.339 2955.68 425.521L2914.08 502.577Z" fill="#FFFFFF"/>
<path d="M934.743 743.408C934.743 702.997 965.683 673.797 1007.26 673.797C1029.3 673.797 1048.25 681.723 1060.82 696.418L1044.57 711.695C1034.72 701.061 1022.53 695.837 1008.42 695.837C980.378 695.837 960.078 715.561 960.078 743.408C960.078 771.253 980.378 790.971 1008.42 790.971C1022.53 790.971 1034.72 785.757 1044.57 774.928L1060.82 790.396C1048.25 805.092 1029.3 813.023 1007.06 813.023C965.683 813.023 934.743 783.823 934.743 743.408Z" fill="#C07A3F"/>
<path d="M1235.02 760.039L1209.5 700.873L1184.17 760.039H1235.02ZM1243.34 779.763H1175.66L1162.32 811.082H1136.41L1197.32 675.729H1222.07L1283.17 811.082H1256.87L1243.34 779.763Z" fill="#C07A3F"/>
<path d="M1468.78 771.831C1468.78 758.3 1458.53 752.302 1439.58 752.302H1398.98V791.358H1439.58C1458.53 791.358 1468.78 785.373 1468.78 771.831ZM1398.98 695.452V732.775H1434.56C1451.96 732.775 1461.82 726.587 1461.82 714.209C1461.82 701.645 1451.96 695.452 1434.56 695.452H1398.98ZM1494.12 774.348C1494.12 797.551 1475.94 811.082 1441.13 811.082H1373.84V675.729H1437.27C1469.75 675.729 1487.15 689.461 1487.15 710.924C1487.15 724.843 1480.19 735.092 1469.75 740.701C1484.25 745.344 1494.12 756.755 1494.12 774.348Z" fill="#C07A3F"/>
<path d="M1594.45 675.729H1619.59V811.082H1594.45V675.729Z" fill="#C07A3F"/>
<path d="M1849.88 675.729V811.082H1829.19L1754.55 719.433V811.082H1729.6V675.729H1750.29L1824.93 767.39V675.729H1849.88Z" fill="#C07A3F"/>
<path d="M2061.21 790.011V811.082H1959.69V675.729H2058.5V696.811H1984.83V732.003H2050.18V752.688H1984.83V790.011H2061.21Z" fill="#C07A3F"/>
<path d="M2190.16 697.006H2145.3V675.729H2260.16V697.006H2215.3V811.082H2190.16V697.006Z" fill="#C07A3F"/>
<path d="M2339.81 796.778L2348.52 777.251C2359.34 785.948 2376.55 792.141 2393.18 792.141C2414.26 792.141 2423.16 784.595 2423.16 774.542C2423.16 745.343 2342.71 764.485 2342.71 714.208C2342.71 692.357 2360.12 673.797 2397.25 673.797C2413.48 673.797 2430.51 678.053 2442.3 685.784L2434.37 705.313C2422.19 698.163 2408.84 694.679 2397.05 694.679C2376.17 694.679 2367.66 702.802 2367.66 713.05C2367.66 741.858 2447.91 723.101 2447.91 772.797C2447.91 794.457 2430.31 813.023 2393.18 813.023C2372.11 813.023 2351.03 806.444 2339.81 796.778Z" fill="#C07A3F"/>
</g>
<defs>
<clipPath id="clip0_3164_1263">
<rect width="3000" height="878" fill="white"/>
</clipPath>
</defs>
</svg>
