<svg xmlns="http://www.w3.org/2000/svg" viewBox="0 0 91.761 28.323">
  <defs>
    <style>
      .cls-1 {
        fill: #080405;
      }

      .cls-2 {
        fill: #030202;
      }

      .cls-3 {
        fill: #070305;
      }

      .cls-4 {
        fill: #2a81ba;
      }

      .cls-5 {
        fill: #17557e;
      }

      .cls-6 {
        fill: #fff;
      }

      .cls-7 {
        fill: #9b9a9a;
      }

      .cls-8 {
        fill: #d1d3d4;
      }

      .cls-9 {
        fill: #e5e5e5;
      }

      .cls-10 {
        fill: #a7a9ac;
      }
    </style>
  </defs>
  <g id="Layer_2" data-name="Layer 2">
    <g id="Layer_1-2" data-name="Layer 1">
      <polygon class="cls-1" points="25.353 0 27.866 0 27.866 2.859 27.889 2.859 30.127 0 33.223 0 30.264 3.243 33.702 8.299 30.573 8.299 28.563 5.068 27.866 5.846 27.866 8.299 25.353 8.299 25.353 0"/>
      <path d="M36.17,1.616H33.909V0H36.17Zm-2.261.65H36.17V8.3H33.909Z"/>
      <path class="cls-2" d="M39.761,2.266h1.211V3.685H39.761v2.1c0,.558.115.8.7.8a3.7,3.7,0,0,0,.514-.035V8.3c-.457,0-.96.07-1.451.07-.959,0-2.021-.152-2.021-1.8V3.685H36.495V2.266H37.5V.43h2.261Z"/>
      <path class="cls-2" d="M45.124,4.556a.8.8,0,0,0-.251-.569.834.834,0,0,0-.571-.2c-.868,0-.994.767-.994,1.5s.126,1.488.994,1.488a.917.917,0,0,0,.879-.883H47.34A2.9,2.9,0,0,1,44.256,8.45a3.083,3.083,0,0,1-3.21-3.162,3.092,3.092,0,0,1,3.21-3.173c1.565,0,2.867.768,3.015,2.441Z"/>
      <path d="M47.668,0h2.261V2.917h.023a2.154,2.154,0,0,1,1.85-.8,1.924,1.924,0,0,1,2.033,2.046V8.3H51.574V5.137c0-.7-.08-1.185-.743-1.185-.4,0-.9.2-.9,1.162V8.3H47.668Z"/>
      <path class="cls-2" d="M56.272,5.8a1.187,1.187,0,0,0,2.1.744h2.113A3.354,3.354,0,0,1,54.114,5.3a3.064,3.064,0,0,1,3.129-3.185c2.353,0,3.369,1.325,3.369,3.685Zm2.171-1.2a.983.983,0,0,0-.994-1.012A1.073,1.073,0,0,0,56.284,4.6Z"/>
      <path class="cls-2" d="M61.072,2.266h2.181v.768h.023a2.147,2.147,0,0,1,1.93-.919,1.925,1.925,0,0,1,2.033,2.046V8.3H64.978V5.137c0-.7-.08-1.185-.742-1.185-.4,0-.9.2-.9,1.162V8.3H61.072Z"/>
      <path class="cls-2" d="M30.5,12.7a1.33,1.33,0,0,0-1.313-1.221c-1.177,0-1.553,1.163-1.553,2.279s.376,2.277,1.553,2.277c.845,0,1.165-.592,1.325-1.382h2.467a3.532,3.532,0,0,1-3.724,3.451,4.005,4.005,0,0,1-4.134-4.346,4,4,0,0,1,4.134-4.347,3.347,3.347,0,0,1,3.69,3.289Z"/>
      <path class="cls-2" d="M39.361,16.562a2.382,2.382,0,0,0,.274,1.348H37.328a1.647,1.647,0,0,1-.08-.569h-.022a2.4,2.4,0,0,1-1.908.72c-1.142,0-2.09-.558-2.09-1.825,0-1.918,2.2-1.825,3.347-2.057.308-.058.617-.151.617-.535,0-.406-.378-.558-.743-.558-.685,0-.845.361-.845.616H33.5c.057-1.708,1.656-1.975,3.05-1.975,2.832,0,2.809,1.2,2.809,2.359ZM37.192,15.2a4.489,4.489,0,0,1-.891.29c-.5.128-.766.244-.766.651a.654.654,0,0,0,.708.558.9.9,0,0,0,.949-.941Z"/>
      <path class="cls-2" d="M39.976,9.611h2.262V12.54h.022a1.925,1.925,0,0,1,1.622-.813c1.987,0,2.524,1.708,2.524,3.138,0,1.522-.811,3.2-2.49,3.2a1.835,1.835,0,0,1-1.736-.814h-.022v.663H39.976ZM43.151,13.4c-.811,0-.993.779-.993,1.488s.182,1.5.993,1.5.994-.79.994-1.5-.183-1.488-.994-1.488"/>
      <path d="M49.076,11.227H46.815V9.611h2.261Zm-2.261.651h2.261V17.91H46.815Z"/>
      <path d="M49.446,11.878h2.182v.767h.023a2.146,2.146,0,0,1,1.93-.919,1.925,1.925,0,0,1,2.033,2.046V17.91H53.353V14.748c0-.7-.08-1.185-.743-1.185-.4,0-.9.2-.9,1.162V17.91H49.446Z"/>
      <path class="cls-2" d="M58.1,15.411a1.187,1.187,0,0,0,2.1.744h2.113a3.354,3.354,0,0,1-6.373-1.244,3.064,3.064,0,0,1,3.129-3.185c2.353,0,3.37,1.326,3.37,3.685Zm2.171-1.2a.982.982,0,0,0-.994-1.011,1.072,1.072,0,0,0-1.165,1.011Z"/>
      <path class="cls-2" d="M65.568,11.878h1.211V13.3H65.568v2.1c0,.557.115.8.7.8a3.869,3.869,0,0,0,.514-.034V17.91c-.457,0-.959.07-1.451.07-.959,0-2.022-.151-2.022-1.8V13.3h-1V11.878h1V10.041h2.262Z"/>
      <path d="M25.285,19.617h4.123c2.707,0,3.678,2.046,3.678,4.138,0,2.557-1.325,4.161-4.169,4.161H25.285ZM27.8,25.789h.982c1.554,0,1.794-1.29,1.794-2.069A1.815,1.815,0,0,0,28.6,21.744h-.8Z"/>
      <path class="cls-2" d="M35.62,21.233H33.358V19.618H35.62Zm-2.262.651H35.62v6.032H33.358Z"/>
      <path class="cls-2" d="M39.728,23.639a.583.583,0,0,0-.263-.453.757.757,0,0,0-.5-.174c-.32,0-.685.081-.685.464,0,.175.137.256.262.314.366.151,1.234.221,1.987.465a1.717,1.717,0,0,1,1.417,1.685c0,1.674-1.576,2.127-3.015,2.127-1.394,0-2.924-.569-2.959-2.127h2.159a.765.765,0,0,0,.274.535.883.883,0,0,0,.606.174c.3,0,.765-.116.765-.464s-.2-.454-1.245-.64c-1.725-.29-2.422-.86-2.422-1.894,0-1.523,1.611-1.918,2.8-1.918,1.279,0,2.821.36,2.878,1.906Z"/>
      <path class="cls-2" d="M45.35,21.884h1.21V23.3H45.35v2.1c0,.558.114.8.7.8a3.845,3.845,0,0,0,.513-.035v1.743c-.456,0-.959.07-1.45.07-.959,0-2.021-.151-2.021-1.8V23.3H42.083V21.884h1.006V20.047H45.35Z"/>
      <path d="M47.03,21.884H49.2v.965h.023a1.716,1.716,0,0,1,1.667-1.116,2.675,2.675,0,0,1,.663.093V23.86a2.257,2.257,0,0,0-.891-.151c-.9,0-1.371.523-1.371,1.824v2.383H47.03Z"/>
      <path d="M54.158,21.233H51.9V19.618h2.261Zm-2.261.651h2.261v6.032H51.9Z"/>
      <path class="cls-2" d="M54.577,19.618h2.262v2.928h.022a1.925,1.925,0,0,1,1.622-.813c1.987,0,2.524,1.708,2.524,3.138,0,1.523-.811,3.2-2.489,3.2a1.835,1.835,0,0,1-1.737-.813h-.023v.662H54.577Zm3.175,3.789c-.811,0-.994.778-.994,1.487s.183,1.5.994,1.5.994-.791.994-1.5-.183-1.487-.994-1.487"/>
      <path d="M67.561,27.916H65.38v-.767h-.023a2.15,2.15,0,0,1-1.931.919,1.925,1.925,0,0,1-2.033-2.046V21.884h2.262v3.161c0,.7.068,1.186.742,1.186.4,0,.9-.2.9-1.162V21.884h2.262Z"/>
      <path class="cls-2" d="M71.167,21.884h1.211V23.3H71.167v2.1c0,.558.115.8.7.8a3.849,3.849,0,0,0,.514-.035v1.743c-.457,0-.959.07-1.451.07-.959,0-2.021-.151-2.021-1.8V23.3H67.9V21.884h1.005V20.047h2.261Z"/>
      <path class="cls-3" d="M75.685,28.067a2.991,2.991,0,0,1-3.232-3.173,3.233,3.233,0,0,1,6.464,0,2.991,2.991,0,0,1-3.232,3.173m0-4.66c-.868,0-.97.848-.97,1.487s.1,1.5.97,1.5.971-.86.971-1.5-.1-1.487-.971-1.487"/>
      <path class="cls-2" d="M79.244,21.884h2.17v.965h.023A1.715,1.715,0,0,1,83.1,21.733a2.674,2.674,0,0,1,.662.093V23.86a2.257,2.257,0,0,0-.891-.151c-.9,0-1.37.523-1.37,1.824v2.383H79.244Z"/>
      <path d="M87.658,23.639a.585.585,0,0,0-.262-.453.76.76,0,0,0-.5-.174c-.32,0-.685.081-.685.464,0,.175.137.256.263.314.365.151,1.233.221,1.987.465a1.717,1.717,0,0,1,1.416,1.685c0,1.674-1.576,2.127-3.015,2.127-1.393,0-2.924-.569-2.958-2.127h2.158a.766.766,0,0,0,.275.535.88.88,0,0,0,.6.174c.3,0,.765-.116.765-.464s-.194-.454-1.245-.64c-1.724-.29-2.421-.86-2.421-1.894,0-1.523,1.61-1.918,2.8-1.918,1.279,0,2.821.36,2.878,1.906Z"/>
      <polygon class="cls-4" points="3.948 4.037 17.843 4.037 22.992 9.185 22.992 0.088 0 0.088 0 28.323 9.096 28.323 3.948 23.175 3.948 4.037"/>
      <polygon class="cls-5" points="22.992 9.185 17.843 4.036 3.948 4.036 3.948 23.175 9.096 28.323 22.992 28.323 22.992 9.185"/>
      <rect class="cls-6" x="3.948" y="4.037" width="13.895" height="19.139"/>
      <polygon class="cls-7" points="6.01 6.14 15.573 6.14 14.711 7.04 6.88 7.003 6.01 6.14"/>
      <polygon class="cls-8" points="6.012 6.142 6.012 20.949 6.911 20.244 6.881 7.001 6.012 6.142"/>
      <polygon class="cls-9" points="15.572 20.949 6.009 20.949 6.871 20.05 14.702 20.086 15.572 20.949"/>
      <polygon class="cls-10" points="15.57 20.947 15.57 6.141 14.671 7.034 14.701 20.088 15.57 20.947"/>
      <path class="cls-2" d="M90.432,21.724V21.9H90.1v.867h-.206V21.9h-.329v-.172Zm1.123,1.039-.039-.611c0-.08,0-.179-.007-.29H91.5c-.027.091-.061.214-.088.309l-.187.577h-.214l-.187-.592c-.019-.077-.05-.2-.073-.294h-.011c0,.1,0,.2-.008.29l-.038.611h-.2l.076-1.039h.309l.18.508c.027.081.042.157.069.264h0c.026-.092.049-.183.072-.256l.18-.516h.3l.08,1.039Z"/>
    </g>
  </g>
</svg>
